<svg width="120" height="120" viewBox="0 0 120 120" fill="none" xmlns="http://www.w3.org/2000/svg">
<g clip-path="url(#clip0_2031_18)">
<path d="M64.3716 25.2913L86.8521 23.4179C90.349 23.1682 97.9674 22.5437 102.713 27.2896L109.707 34.2835C113.079 37.6556 113.579 42.4014 113.579 45.3988C113.579 60.8854 96.5936 88.3615 82.6058 88.3615C80.7324 88.3615 75.9865 87.8619 71.99 83.8654L69.9917 81.8671L71.7402 98.9772C73.114 112.091 63.2476 114.838 56.7533 114.838C53.2563 114.838 49.8842 113.714 47.1366 110.967L40.1427 103.973C38.8938 102.724 37.0204 100.726 36.396 94.7309L33.1488 63.3832L29.6518 63.7579C22.533 64.5072 19.0361 61.6347 17.6623 60.2609L10.6683 53.267C7.04649 49.6451 6.79671 44.1499 6.79671 42.5263C6.79671 37.9053 8.54519 29.9123 19.9103 29.0381L29.6518 28.2887L28.9025 21.2948C27.2789 6.05804 40.5174 5.55847 44.0143 5.55847C49.01 5.55847 52.3821 7.93141 53.7559 9.30521L60.7498 16.2991C63.2476 18.797 63.8721 21.7943 64.3716 25.2913ZM59.7507 92.4829L55.3795 48.2713L77.8599 45.8984C78.859 45.7735 80.2328 45.6486 80.2328 46.8975C80.2328 49.77 75.6119 55.7648 71.8651 59.1369C67.2441 63.1334 65.9952 64.2574 65.9952 67.5046C65.9952 72.2505 70.866 76.3719 75.487 76.3719C85.9778 76.3719 101.589 51.8932 101.589 38.4049C101.589 30.4119 97.2181 27.6642 87.3516 28.4136L53.631 31.1612L52.3821 18.797C52.1323 16.0493 51.5078 10.5541 43.8894 10.5541C32.899 10.5541 33.6484 18.0476 33.8981 20.7952L35.1471 32.7848L20.285 34.0337C16.9129 34.2835 11.7924 35.2826 11.7924 42.6512C11.7924 44.7744 11.7924 52.7674 22.1583 51.7683L36.8955 50.2696L41.2667 94.2313C41.5165 96.7292 42.141 102.849 50.134 102.849C60.7498 102.849 60.0004 94.7309 59.7507 92.4829Z" class="favicon-mark"/>
</g>
<defs>
<clipPath id="clip0_2031_18">
<rect width="120" height="120" fill="white"/>
</clipPath>
</defs>
<style>.favicon-mark{fill:#000;} @media (prefers-color-scheme: dark){.favicon-mark{fill:#fff;}}</style></svg>
