<svg width="139" height="83" viewBox="0 0 139 83" fill="none" xmlns="http://www.w3.org/2000/svg">
<g filter="url(#filter0_d_2024_17)">
<mask id="path-1-outside-1_2024_17" maskUnits="userSpaceOnUse" x="4.02344" y="-0.172058" width="130" height="74" fill="black">
<rect fill="white" x="4.02344" y="-0.172058" width="130" height="74"/>
<path d="M42.9434 19.023L54.362 18.0715C56.1383 17.9446 60.0079 17.6274 62.4185 20.038L65.971 23.5905C67.6838 25.3033 67.9375 27.7139 67.9375 29.2364C67.9375 37.1025 59.3101 51.0587 52.2052 51.0587C51.2536 51.0587 48.843 50.8049 46.813 48.7749L45.798 47.7599L46.6862 56.4508C47.384 63.1117 42.3724 64.5073 39.0737 64.5073C37.2975 64.5073 35.5847 63.9363 34.1891 62.5407L30.6366 58.9883C30.0023 58.3539 29.0507 57.3389 28.7335 54.2939L27.0842 38.3713L25.3079 38.5616C21.692 38.9422 19.9158 37.4832 19.218 36.7854L15.6655 33.2329C13.8258 31.3932 13.699 28.602 13.699 27.7773C13.699 25.4302 14.5871 21.3702 20.3598 20.9261L25.3079 20.5455L24.9273 16.993C24.1026 9.25375 30.8269 9 32.6032 9C35.1406 9 36.8534 10.2053 37.5512 10.9031L41.1037 14.4556C42.3724 15.7243 42.6896 17.2468 42.9434 19.023ZM40.5962 53.1521L38.3759 30.6954L49.7946 29.4901C50.3021 29.4267 50.9999 29.3632 50.9999 29.9976C50.9999 31.4567 48.6527 34.5016 46.7496 36.2144C44.4024 38.2444 43.7681 38.8153 43.7681 40.4647C43.7681 42.8753 46.2421 44.9687 48.5893 44.9687C53.918 44.9687 61.8476 32.5351 61.8476 25.6839C61.8476 21.6239 59.6273 20.2283 54.6158 20.609L37.4878 22.0046L36.8534 15.7243C36.7266 14.3287 36.4094 11.5375 32.5397 11.5375C26.9573 11.5375 27.3379 15.3437 27.4648 16.7393L28.0991 22.8292L20.5502 23.4636C18.8374 23.5905 16.2365 24.098 16.2365 27.8408C16.2365 28.9192 16.2365 32.9791 21.5017 32.4717L28.9873 31.7104L31.2076 54.0402C31.3344 55.3089 31.6516 58.4173 35.7116 58.4173C41.1037 58.4173 40.7231 54.2939 40.5962 53.1521ZM98.2603 13.1868L101.813 16.7393C103.018 17.9446 103.97 20.1649 105.365 24.9861C105.619 23.9077 106.697 18.9596 106.951 18.008C108.157 13.6309 111.455 12.9965 113.231 12.9965C114.691 12.9965 117.418 13.2503 119.512 15.3437L123.064 18.8962C124.079 19.9111 124.714 21.6239 124.714 23.1464C124.714 25.9377 121.986 37.8638 116.15 46.4278C106.507 60.5742 90.8382 63.6826 88.1739 63.6826C87.603 63.6826 85.4461 63.5557 83.7333 61.8429L80.1808 58.3539C78.6583 56.8949 77.7702 54.6111 77.7702 52.5177C77.7702 48.204 80.5615 47.3793 86.017 45.6031C92.0435 43.7 94.8982 41.67 97.1819 39.5766C96.4841 39.3863 95.6594 39.1325 94.7079 38.181L92.8048 36.2779C92.4876 40.4647 88.3008 42.4947 84.7483 42.4947C83.2258 42.4947 81.6399 41.9872 80.4346 40.7819L76.8821 37.2294C75.7403 36.0876 75.6134 35.7069 74.2178 30.5685C73.9006 29.3632 72.4415 25.4936 71.8072 23.7174C71.49 22.9561 71.1728 21.9411 71.1728 20.609C71.1728 16.549 74.979 14.1384 78.9121 14.1384C80.9421 14.1384 82.4011 15.0265 83.2258 15.8512L86.1439 18.7693C85.4461 12.9331 91.2189 11.4106 93.2488 11.4106C93.8198 11.4106 96.4841 11.4106 98.2603 13.1868ZM81.3861 36.4047C82.9721 36.4047 86.7148 35.4532 86.7148 32.2813C86.7148 30.4417 84.4311 23.4636 82.9086 20.038C81.9571 17.8812 81.0055 16.6759 78.7852 16.6759C76.5015 16.6759 73.6468 18.008 73.6468 20.5455C73.6468 21.4971 73.964 22.1949 74.2178 22.8927C75.6134 26.5086 76.2477 28.4117 76.6918 29.9976C78.1509 35.1994 78.468 36.4047 81.3861 36.4047ZM95.7229 33.8038C96.8647 33.8038 100.988 33.2329 100.988 29.617C100.988 28.1579 99.3388 21.3702 97.8797 17.564C97.055 15.4706 96.2938 13.9481 93.6295 13.9481C91.536 13.9481 88.6179 15.0265 88.6179 17.7543C88.6179 18.579 88.7448 19.1499 89.3157 20.7993C90.5845 24.542 91.0285 26.3183 91.6629 29.617C92.0435 31.4567 92.4876 33.8038 95.7229 33.8038ZM118.624 19.8477C118.624 15.7243 114.183 15.534 113.358 15.534C109.996 15.534 109.742 17.0565 108.283 23.7808C104.287 42.5581 92.1704 46.3009 85.5095 48.3943C81.7033 49.5996 80.3077 50.0437 80.3077 52.4543C80.3077 54.3574 81.5764 57.5927 84.6214 57.5927C86.4611 57.5927 101.305 54.9283 110.631 41.3528C115.769 33.8038 118.624 22.068 118.624 19.8477Z"/>
</mask>
<path d="M42.9434 19.023L54.362 18.0715C56.1383 17.9446 60.0079 17.6274 62.4185 20.038L65.971 23.5905C67.6838 25.3033 67.9375 27.7139 67.9375 29.2364C67.9375 37.1025 59.3101 51.0587 52.2052 51.0587C51.2536 51.0587 48.843 50.8049 46.813 48.7749L45.798 47.7599L46.6862 56.4508C47.384 63.1117 42.3724 64.5073 39.0737 64.5073C37.2975 64.5073 35.5847 63.9363 34.1891 62.5407L30.6366 58.9883C30.0023 58.3539 29.0507 57.3389 28.7335 54.2939L27.0842 38.3713L25.3079 38.5616C21.692 38.9422 19.9158 37.4832 19.218 36.7854L15.6655 33.2329C13.8258 31.3932 13.699 28.602 13.699 27.7773C13.699 25.4302 14.5871 21.3702 20.3598 20.9261L25.3079 20.5455L24.9273 16.993C24.1026 9.25375 30.8269 9 32.6032 9C35.1406 9 36.8534 10.2053 37.5512 10.9031L41.1037 14.4556C42.3724 15.7243 42.6896 17.2468 42.9434 19.023ZM40.5962 53.1521L38.3759 30.6954L49.7946 29.4901C50.3021 29.4267 50.9999 29.3632 50.9999 29.9976C50.9999 31.4567 48.6527 34.5016 46.7496 36.2144C44.4024 38.2444 43.7681 38.8153 43.7681 40.4647C43.7681 42.8753 46.2421 44.9687 48.5893 44.9687C53.918 44.9687 61.8476 32.5351 61.8476 25.6839C61.8476 21.6239 59.6273 20.2283 54.6158 20.609L37.4878 22.0046L36.8534 15.7243C36.7266 14.3287 36.4094 11.5375 32.5397 11.5375C26.9573 11.5375 27.3379 15.3437 27.4648 16.7393L28.0991 22.8292L20.5502 23.4636C18.8374 23.5905 16.2365 24.098 16.2365 27.8408C16.2365 28.9192 16.2365 32.9791 21.5017 32.4717L28.9873 31.7104L31.2076 54.0402C31.3344 55.3089 31.6516 58.4173 35.7116 58.4173C41.1037 58.4173 40.7231 54.2939 40.5962 53.1521ZM98.2603 13.1868L101.813 16.7393C103.018 17.9446 103.97 20.1649 105.365 24.9861C105.619 23.9077 106.697 18.9596 106.951 18.008C108.157 13.6309 111.455 12.9965 113.231 12.9965C114.691 12.9965 117.418 13.2503 119.512 15.3437L123.064 18.8962C124.079 19.9111 124.714 21.6239 124.714 23.1464C124.714 25.9377 121.986 37.8638 116.15 46.4278C106.507 60.5742 90.8382 63.6826 88.1739 63.6826C87.603 63.6826 85.4461 63.5557 83.7333 61.8429L80.1808 58.3539C78.6583 56.8949 77.7702 54.6111 77.7702 52.5177C77.7702 48.204 80.5615 47.3793 86.017 45.6031C92.0435 43.7 94.8982 41.67 97.1819 39.5766C96.4841 39.3863 95.6594 39.1325 94.7079 38.181L92.8048 36.2779C92.4876 40.4647 88.3008 42.4947 84.7483 42.4947C83.2258 42.4947 81.6399 41.9872 80.4346 40.7819L76.8821 37.2294C75.7403 36.0876 75.6134 35.7069 74.2178 30.5685C73.9006 29.3632 72.4415 25.4936 71.8072 23.7174C71.49 22.9561 71.1728 21.9411 71.1728 20.609C71.1728 16.549 74.979 14.1384 78.9121 14.1384C80.9421 14.1384 82.4011 15.0265 83.2258 15.8512L86.1439 18.7693C85.4461 12.9331 91.2189 11.4106 93.2488 11.4106C93.8198 11.4106 96.4841 11.4106 98.2603 13.1868ZM81.3861 36.4047C82.9721 36.4047 86.7148 35.4532 86.7148 32.2813C86.7148 30.4417 84.4311 23.4636 82.9086 20.038C81.9571 17.8812 81.0055 16.6759 78.7852 16.6759C76.5015 16.6759 73.6468 18.008 73.6468 20.5455C73.6468 21.4971 73.964 22.1949 74.2178 22.8927C75.6134 26.5086 76.2477 28.4117 76.6918 29.9976C78.1509 35.1994 78.468 36.4047 81.3861 36.4047ZM95.7229 33.8038C96.8647 33.8038 100.988 33.2329 100.988 29.617C100.988 28.1579 99.3388 21.3702 97.8797 17.564C97.055 15.4706 96.2938 13.9481 93.6295 13.9481C91.536 13.9481 88.6179 15.0265 88.6179 17.7543C88.6179 18.579 88.7448 19.1499 89.3157 20.7993C90.5845 24.542 91.0285 26.3183 91.6629 29.617C92.0435 31.4567 92.4876 33.8038 95.7229 33.8038ZM118.624 19.8477C118.624 15.7243 114.183 15.534 113.358 15.534C109.996 15.534 109.742 17.0565 108.283 23.7808C104.287 42.5581 92.1704 46.3009 85.5095 48.3943C81.7033 49.5996 80.3077 50.0437 80.3077 52.4543C80.3077 54.3574 81.5764 57.5927 84.6214 57.5927C86.4611 57.5927 101.305 54.9283 110.631 41.3528C115.769 33.8038 118.624 22.068 118.624 19.8477Z" fill="black"/>
<path d="M42.9434 19.023L34.0338 20.2958C34.7078 25.0132 38.942 28.3877 43.6908 27.9919L42.9434 19.023ZM54.362 18.0715L53.7208 9.09435C53.6854 9.09688 53.65 9.09962 53.6146 9.10257L54.362 18.0715ZM46.813 48.7749L40.4491 55.1389L40.4491 55.1389L46.813 48.7749ZM45.798 47.7599L52.162 41.396C49.4696 38.7036 45.3742 37.9968 41.9352 39.6311C38.4961 41.2654 36.4576 44.887 36.8447 48.6749L45.798 47.7599ZM46.6862 56.4508L37.7328 57.3657C37.7336 57.3733 37.7343 57.3809 37.7351 57.3885L46.6862 56.4508ZM34.1891 62.5407L27.8251 68.9047H27.8251L34.1891 62.5407ZM30.6366 58.9883L24.2727 65.3522H24.2727L30.6366 58.9883ZM28.7335 54.2939L19.7814 55.2213L19.782 55.2264L28.7335 54.2939ZM27.0842 38.3713L36.0363 37.444C35.7898 35.0643 34.6059 32.8806 32.7462 31.3755C30.8866 29.8704 28.5042 29.1676 26.1254 29.4225L27.0842 38.3713ZM25.3079 38.5616L26.2501 47.5121C26.2556 47.5116 26.2612 47.511 26.2667 47.5104L25.3079 38.5616ZM19.218 36.7854L12.854 43.1493L12.854 43.1493L19.218 36.7854ZM15.6655 33.2329L22.0295 26.8689L22.0295 26.8689L15.6655 33.2329ZM20.3598 20.9261L21.0501 29.8996H21.0501L20.3598 20.9261ZM25.3079 20.5455L25.9982 29.519C28.4247 29.3323 30.6722 28.1709 32.2282 26.2996C33.7842 24.4283 34.516 22.0066 34.2567 19.5867L25.3079 20.5455ZM24.9273 16.993L15.978 17.9467L15.9785 17.9518L24.9273 16.993ZM37.5512 10.9031L43.9152 4.53915V4.53915L37.5512 10.9031ZM41.1037 14.4556L34.7397 20.8195H34.7398L41.1037 14.4556ZM40.5962 53.1521L31.6399 54.0376C31.6435 54.0737 31.6473 54.1099 31.6513 54.146L40.5962 53.1521ZM38.3759 30.6954L37.4312 21.7451C32.5112 22.2645 28.9328 26.6576 29.4196 31.5809L38.3759 30.6954ZM49.7946 29.4901L50.7393 38.4404C50.7966 38.4343 50.8538 38.4278 50.9109 38.4206L49.7946 29.4901ZM46.7496 36.2144L52.637 43.0217C52.6818 42.9829 52.7262 42.9437 52.7703 42.9041L46.7496 36.2144ZM54.6158 20.609L53.9342 11.6348C53.9177 11.636 53.9013 11.6373 53.8849 11.6387L54.6158 20.609ZM37.4878 22.0046L28.5334 22.909C29.0261 27.7869 33.3323 31.373 38.2187 30.9748L37.4878 22.0046ZM36.8534 15.7243L27.8904 16.5391C27.8931 16.569 27.896 16.5989 27.899 16.6288L36.8534 15.7243ZM27.4648 16.7393L18.5017 17.5541C18.5053 17.5934 18.5091 17.6326 18.5132 17.6718L27.4648 16.7393ZM28.0991 22.8292L28.8528 31.7976C31.2624 31.5951 33.4891 30.4316 35.0313 28.5691C36.5734 26.7066 37.3012 24.3019 37.0507 21.8968L28.0991 22.8292ZM20.5502 23.4636L21.215 32.439C21.2446 32.4368 21.2742 32.4345 21.3038 32.432L20.5502 23.4636ZM21.5017 32.4716L22.3652 41.4301C22.3809 41.4286 22.3966 41.4271 22.4123 41.4255L21.5017 32.4716ZM28.9873 31.7104L37.9431 30.8199C37.7066 28.4412 36.5335 26.2543 34.6825 24.7416C32.8316 23.2289 30.4549 22.5147 28.0767 22.7566L28.9873 31.7104ZM31.2076 54.0402L22.2517 54.9307L22.2522 54.9357L31.2076 54.0402ZM42.9434 19.023L43.6908 27.9919L55.1094 27.0404L54.362 18.0715L53.6146 9.10257L42.196 10.0541L42.9434 19.023ZM54.362 18.0715L55.0033 27.0486C55.4905 27.0138 55.8129 26.9906 56.1684 26.9852C56.5118 26.9799 56.7567 26.9958 56.9194 27.0183C57.0858 27.0414 57.0565 27.0566 56.899 26.9902C56.7194 26.9146 56.3917 26.7391 56.0546 26.402L62.4185 20.038L68.7825 13.6741C65.6815 10.5731 61.9586 9.54393 59.3853 9.18805C56.8297 8.83461 54.519 9.03733 53.7208 9.09435L54.362 18.0715ZM62.4185 20.038L56.0546 26.402L59.607 29.9544L65.971 23.5905L72.3349 17.2265L68.7825 13.6741L62.4185 20.038ZM65.971 23.5905L59.607 29.9544C59.0941 29.4415 58.9427 28.9584 58.92 28.876C58.9079 28.8322 58.915 28.8436 58.9234 28.9216C58.9316 28.9976 58.9375 29.1016 58.9375 29.2364H67.9375H76.9375C76.9375 27.1706 76.6999 21.5915 72.3349 17.2265L65.971 23.5905ZM67.9375 29.2364H58.9375C58.9375 29.7242 58.7632 30.936 58.0681 32.7607C57.4076 34.4943 56.4388 36.3541 55.2963 38.0322C54.1316 39.7428 52.979 40.9826 52.0744 41.6987C51.0394 42.5181 51.1123 42.0587 52.2052 42.0587V51.0587V60.0587C56.8505 60.0587 60.6662 57.8547 63.2471 55.8115C65.9584 53.665 68.2948 50.9241 70.1751 48.1625C73.7286 42.9433 76.9375 35.7067 76.9375 29.2364H67.9375ZM52.2052 51.0587V42.0587C52.3559 42.0587 52.4506 42.068 52.51 42.0764C52.572 42.0852 52.6325 42.0983 52.6969 42.1192C52.8437 42.167 53.0316 42.2656 53.177 42.411L46.813 48.7749L40.4491 55.1389C44.8172 59.507 49.9785 60.0587 52.2052 60.0587V51.0587ZM46.813 48.7749L53.177 42.411L52.162 41.396L45.798 47.7599L39.4341 54.1239L40.4491 55.1389L46.813 48.7749ZM45.798 47.7599L36.8447 48.6749L37.7328 57.3657L46.6862 56.4508L55.6395 55.5359L54.7514 46.845L45.798 47.7599ZM46.6862 56.4508L37.7351 57.3885C37.79 57.9118 37.6745 57.7425 37.8886 57.2026C38.1222 56.6134 38.542 56.1038 38.9844 55.7725C39.3606 55.4909 39.6042 55.4451 39.5327 55.4633C39.4667 55.4801 39.2984 55.5073 39.0737 55.5073V64.5073V73.5073C41.6585 73.5073 45.9879 73.0152 49.7728 70.1812C54.2552 66.8251 56.2652 61.5081 55.6372 55.5131L46.6862 56.4508ZM39.0737 64.5073V55.5073C39.1519 55.5073 39.3915 55.5211 39.7195 55.6473C40.067 55.7809 40.3581 55.9818 40.553 56.1768L34.1891 62.5407L27.8251 68.9047C31.1358 72.2153 35.2523 73.5073 39.0737 73.5073V64.5073ZM34.1891 62.5407L40.5531 56.1768L37.0006 52.6243L30.6366 58.9883L24.2727 65.3522L27.8251 68.9047L34.1891 62.5407ZM30.6366 58.9883L37.0006 52.6243C36.897 52.5207 37.0226 52.6393 37.1763 52.8337C37.3463 53.0487 37.4985 53.2852 37.616 53.5202C37.8486 53.9853 37.7588 54.0694 37.6851 53.3615L28.7335 54.2939L19.782 55.2264C20.0254 57.5634 20.57 59.6775 21.5163 61.57C22.5143 63.5659 23.7059 64.7854 24.2727 65.3522L30.6366 58.9883ZM28.7335 54.2939L37.6856 53.3666L36.0363 37.444L27.0842 38.3713L18.1321 39.2986L19.7814 55.2213L28.7335 54.2939ZM27.0842 38.3713L26.1254 29.4225L24.3491 29.6128L25.3079 38.5616L26.2667 47.5104L28.043 47.3201L27.0842 38.3713ZM25.3079 38.5616L24.3658 29.611C24.139 29.6349 24.0788 29.6162 24.1531 29.6264C24.2306 29.637 24.3863 29.6698 24.592 29.7544C24.7957 29.8381 24.9951 29.9507 25.1802 30.0826C25.3653 30.2146 25.5036 30.343 25.5819 30.4214L19.218 36.7854L12.854 43.1493C14.9783 45.2736 19.3078 48.2429 26.2501 47.5121L25.3079 38.5616ZM19.218 36.7854L25.5819 30.4214L22.0295 26.8689L15.6655 33.2329L9.30156 39.5969L12.854 43.1493L19.218 36.7854ZM15.6655 33.2329L22.0295 26.8689C22.3417 27.1811 22.5185 27.4715 22.608 27.6477C22.6529 27.7362 22.6798 27.8036 22.6945 27.8441C22.7092 27.8847 22.715 27.9074 22.7157 27.9101C22.7164 27.913 22.7143 27.9049 22.7111 27.8861C22.708 27.8676 22.7051 27.8461 22.7029 27.8234C22.6981 27.7757 22.699 27.7528 22.699 27.7773H13.699H4.69897C4.69897 28.7987 4.68495 34.9803 9.30156 39.5969L15.6655 33.2329ZM13.699 27.7773H22.699C22.699 27.7331 22.7056 27.7713 22.676 27.8936C22.6448 28.0228 22.5458 28.3542 22.2659 28.7587C21.9578 29.204 21.5472 29.5656 21.1354 29.7863C20.7536 29.9909 20.6392 29.9312 21.0501 29.8996L20.3598 20.9261L19.6696 11.9526C14.478 12.352 10.1631 14.6153 7.46335 18.5174C5.0599 21.9913 4.69897 25.6826 4.69897 27.7773H13.699ZM20.3598 20.9261L21.0501 29.8996L25.9982 29.519L25.3079 20.5455L24.6177 11.572L19.6696 11.9526L20.3598 20.9261ZM25.3079 20.5455L34.2567 19.5867L33.8761 16.0342L24.9273 16.993L15.9785 17.9518L16.3591 21.5043L25.3079 20.5455ZM24.9273 16.993L33.8766 16.0394C33.8082 15.3974 33.9715 15.6995 33.6188 16.4231C33.452 16.7651 33.2223 17.0877 32.9528 17.3627C32.691 17.6298 32.4415 17.8017 32.2626 17.9042C31.9486 18.084 31.8186 18.0714 32.0197 18.0378C32.1874 18.0099 32.3835 18 32.6032 18V9V0C31.5294 0 27.3165 -0.00596619 23.3172 2.28434C21.1135 3.5464 18.895 5.54889 17.4391 8.53515C16.002 11.483 15.634 14.719 15.978 17.9467L24.9273 16.993ZM32.6032 9V18C32.4128 18 32.1824 17.9488 31.9611 17.8455C31.8586 17.7977 31.7534 17.737 31.6418 17.658C31.5372 17.584 31.3835 17.4633 31.1873 17.2671L37.5512 10.9031L43.9152 4.53915C41.9543 2.57822 38.0677 0 32.6032 0V9ZM37.5512 10.9031L31.1873 17.2671L34.7397 20.8195L41.1037 14.4556L47.4677 8.09162L43.9152 4.53915L37.5512 10.9031ZM41.1037 14.4556L34.7398 20.8195C34.5424 20.6222 34.3566 20.3869 34.2004 20.1301C34.0478 19.8791 33.962 19.6708 33.9205 19.5536C33.8828 19.4471 33.8864 19.4287 33.9137 19.5605C33.9428 19.7015 33.9795 19.9155 34.0338 20.2958L42.9434 19.023L51.8529 17.7502C51.5844 15.8709 51.0095 11.6335 47.4677 8.09161L41.1037 14.4556ZM40.5962 53.1521L49.5525 52.2666L47.3323 29.8099L38.3759 30.6954L29.4196 31.5809L31.6399 54.0376L40.5962 53.1521ZM38.3759 30.6954L39.3207 39.6457L50.7393 38.4404L49.7946 29.4901L48.8498 20.5398L37.4312 21.7451L38.3759 30.6954ZM49.7946 29.4901L50.9109 38.4206C51.0085 38.4084 50.8112 38.4371 50.5229 38.4475C50.2747 38.4565 49.5192 38.4747 48.5425 38.2468C47.553 38.0159 45.73 37.3862 44.1652 35.6311C42.4803 33.7413 41.9999 31.5725 41.9999 29.9976H50.9999H59.9999C59.9999 28.1056 59.4323 25.7068 57.6006 23.6524C55.8891 21.7328 53.8599 21.004 52.6326 20.7176C51.4179 20.4342 50.3928 20.4404 49.8711 20.4593C49.3092 20.4797 48.8344 20.5401 48.6782 20.5596L49.7946 29.4901ZM50.9999 29.9976H41.9999C41.9999 29.4942 42.0496 29.0761 42.1027 28.7666C42.1563 28.4544 42.2217 28.2044 42.2751 28.0264C42.3778 27.6843 42.4757 27.4779 42.4984 27.4309C42.5268 27.3721 42.5261 27.3813 42.4775 27.4609C42.4313 27.5365 42.3592 27.6471 42.258 27.7892C42.0514 28.0793 41.7841 28.4151 41.4872 28.7494C41.1877 29.0866 40.9194 29.3533 40.7289 29.5248L46.7496 36.2144L52.7703 42.9041C54.2309 41.5895 55.7286 39.9034 56.9188 38.2325C57.518 37.3913 58.1695 36.3726 58.7084 35.2564C59.1387 34.3651 59.9999 32.418 59.9999 29.9976H50.9999ZM46.7496 36.2144L40.8622 29.4072C40.0129 30.1417 38.352 31.5178 37.1786 33.0823C35.3587 35.5089 34.7681 38.0539 34.7681 40.4647H43.7681H52.7681C52.7681 40.6197 52.7555 41.2139 52.5168 42.0011C52.2616 42.8431 51.8783 43.4828 51.5786 43.8823C51.3439 44.1953 51.2063 44.2961 51.4451 44.0725C51.6795 43.8529 52.0155 43.5592 52.637 43.0217L46.7496 36.2144ZM43.7681 40.4647H34.7681C34.7681 44.802 36.9485 48.2038 39.2618 50.2959C41.5637 52.3776 44.8522 53.9687 48.5893 53.9687V44.9687V35.9687C49.9792 35.9687 50.8571 36.5131 51.3352 36.9455C51.8247 37.3882 52.7681 38.538 52.7681 40.4647H43.7681ZM48.5893 44.9687V53.9687C53.1608 53.9687 56.7245 51.4929 58.748 49.7676C61.0442 47.81 63.0616 45.3483 64.7005 42.8947C67.7434 38.3396 70.8476 31.7209 70.8476 25.6839H61.8476H52.8476C52.8476 25.6831 52.8473 25.7512 52.829 25.8953C52.8109 26.0378 52.7781 26.2315 52.7221 26.4771C52.6082 26.9761 52.4184 27.6015 52.1355 28.33C51.5634 29.8036 50.7194 31.4194 49.7328 32.8963C48.7233 34.4075 47.7592 35.4825 47.0698 36.0702C46.1078 36.8904 46.6821 35.9687 48.5893 35.9687V44.9687ZM61.8476 25.6839H70.8476C70.8476 22.0822 69.7908 17.2008 65.1949 14.0547C61.3571 11.4274 56.8836 11.4108 53.9342 11.6348L54.6158 20.609L55.2974 29.5831C55.6971 29.5527 55.9942 29.546 56.2044 29.5498C56.4164 29.5536 56.5023 29.5674 56.4886 29.5653C56.4855 29.5648 55.8499 29.4711 55.0271 28.9078C54.1022 28.2746 53.4476 27.3952 53.1 26.5508C52.805 25.8342 52.8476 25.4318 52.8476 25.6839H61.8476ZM54.6158 20.609L53.8849 11.6387L36.7569 13.0343L37.4878 22.0046L38.2187 30.9748L55.3467 29.5792L54.6158 20.609ZM37.4878 22.0046L46.4422 21.1001L45.8079 14.8198L36.8534 15.7243L27.899 16.6288L28.5334 22.909L37.4878 22.0046ZM36.8534 15.7243L45.8165 14.9095C45.7622 14.3125 45.5782 11.1132 43.5991 8.13098C41.0975 4.36158 36.9981 2.53748 32.5397 2.53748V11.5375V20.5375C32.4293 20.5375 31.7583 20.5154 30.8536 20.0701C29.8943 19.5979 29.1234 18.8709 28.6012 18.0841C28.1285 17.3718 27.9632 16.7712 27.9106 16.548C27.8614 16.3397 27.8623 16.2297 27.8904 16.5391L36.8534 15.7243ZM32.5397 11.5375V2.53748C27.5303 2.53748 22.4802 4.46629 19.88 9.45578C17.9003 13.2546 18.468 17.1831 18.5017 17.5541L27.4648 16.7393L36.4278 15.9245C36.3918 15.5286 36.4158 15.667 36.4025 15.8851C36.3884 16.1165 36.3193 16.8595 35.8425 17.7743C35.2951 18.8247 34.4234 19.6849 33.4413 20.1824C32.5875 20.615 32.1187 20.5375 32.5397 20.5375V11.5375ZM27.4648 16.7393L18.5132 17.6718L19.1476 23.7617L28.0991 22.8292L37.0507 21.8968L36.4163 15.8068L27.4648 16.7393ZM28.0991 22.8292L27.3455 13.8609L19.7965 14.4952L20.5502 23.4636L21.3038 32.432L28.8528 31.7976L28.0991 22.8292ZM20.5502 23.4636L19.8853 14.4882C18.7671 14.571 15.5507 14.8314 12.5582 16.9454C8.89603 19.5324 7.23645 23.5875 7.23645 27.8408H16.2365H25.2365C25.2365 27.9412 25.2177 28.5664 24.8152 29.4231C24.3869 30.3347 23.7128 31.1038 22.9438 31.6471C22.2412 32.1434 21.6356 32.3297 21.3825 32.3944C21.1363 32.4573 21.0289 32.4528 21.215 32.439L20.5502 23.4636ZM16.2365 27.8408H7.23645C7.23645 28.2698 7.09236 31.9404 9.19707 35.4144C10.3918 37.3865 12.243 39.2109 14.8301 40.3504C17.3218 41.4477 19.9336 41.6645 22.3652 41.4301L21.5017 32.4716L20.6382 23.5132C20.4372 23.5325 21.0746 23.4321 22.0853 23.8773C23.1916 24.3645 24.0555 25.2017 24.5921 26.0875C25.0595 26.8589 25.1777 27.4903 25.2099 27.6956C25.2448 27.9181 25.2365 28.0675 25.2365 27.8408H16.2365ZM21.5017 32.4716L22.4123 41.4255L29.8978 40.6642L28.9873 31.7104L28.0767 22.7566L20.5912 23.5178L21.5017 32.4716ZM28.9873 31.7104L20.0314 32.6009L22.2517 54.9307L31.2076 54.0402L40.1634 53.1497L37.9431 30.8199L28.9873 31.7104ZM31.2076 54.0402L22.2522 54.9357C22.3025 55.4384 22.5009 58.601 24.4182 61.5778C26.8413 65.3399 30.937 67.4173 35.7116 67.4173V58.4173V49.4173C35.8531 49.4173 36.5407 49.4495 37.4427 49.9153C38.3814 50.4001 39.091 51.1169 39.5511 51.8312C39.9669 52.4769 40.1096 53.0073 40.1527 53.1898C40.1933 53.3615 40.1948 53.4636 40.1629 53.1447L31.2076 54.0402ZM35.7116 58.4173V67.4173C38.181 67.4173 40.7813 66.9455 43.1721 65.6037C45.6539 64.2109 47.3324 62.2021 48.3381 60.1057C50.1159 56.3999 49.606 52.7419 49.5412 52.1582L40.5962 53.1521L31.6513 54.146C31.6691 54.306 31.6464 54.175 31.6589 53.9519C31.6702 53.7511 31.724 53.1227 32.109 52.3201C32.5517 51.3973 33.3222 50.4907 34.3628 49.9067C35.3124 49.3738 35.9382 49.4173 35.7116 49.4173V58.4173ZM105.365 24.9861L96.7202 27.4886C97.8578 31.4187 101.503 34.0869 105.593 33.9832C109.683 33.8795 113.189 31.0301 114.126 27.0475L105.365 24.9861ZM106.951 18.008L98.2742 15.6187C98.2677 15.6421 98.2614 15.6656 98.2551 15.6891L106.951 18.008ZM119.512 15.3437L113.148 21.7076L113.148 21.7077L119.512 15.3437ZM116.15 46.4278L123.586 51.4968L123.587 51.4961L116.15 46.4278ZM83.7333 61.8429L90.0973 55.479C90.0782 55.4599 90.059 55.4408 90.0397 55.4219L83.7333 61.8429ZM80.1808 58.3539L86.4872 51.9329C86.461 51.9071 86.4345 51.8815 86.408 51.856L80.1808 58.3539ZM86.017 45.6031L83.3068 37.0208C83.2814 37.0289 83.2561 37.037 83.2308 37.0452L86.017 45.6031ZM97.1819 39.5766L103.263 46.211C105.68 43.9958 106.701 40.642 105.929 37.4561C105.156 34.2702 102.713 31.7563 99.55 30.8937L97.1819 39.5766ZM94.7079 38.181L101.072 31.817L101.072 31.817L94.7079 38.181ZM92.8048 36.2779L99.1687 29.9139C96.6821 27.4273 92.9749 26.6167 89.6774 27.8387C86.3799 29.0607 84.0961 32.0914 83.8305 35.598L92.8048 36.2779ZM80.4346 40.7819L86.7985 34.4179V34.4179L80.4346 40.7819ZM76.8821 37.2294L70.5182 43.5934V43.5934L76.8821 37.2294ZM74.2178 30.5685L65.5141 32.859C65.5201 32.8819 65.5262 32.9047 65.5324 32.9275L74.2178 30.5685ZM71.8072 23.7174L80.2828 20.6903C80.2306 20.5441 80.1746 20.3992 80.1149 20.2558L71.8072 23.7174ZM83.2258 15.8512L76.8618 22.2151L76.8618 22.2151L83.2258 15.8512ZM86.1439 18.7693L79.7799 25.1332C82.4924 27.8457 86.626 28.5408 90.0764 26.8647C93.5268 25.1886 95.5357 21.5097 95.0803 17.7008L86.1439 18.7693ZM82.9086 20.038L74.6744 23.6708C74.6777 23.6783 74.681 23.6858 74.6843 23.6933L82.9086 20.038ZM74.2178 22.8927L65.7596 25.9684C65.7797 26.0236 65.8003 26.0786 65.8215 26.1334L74.2178 22.8927ZM76.6918 29.9976L68.0251 32.4243L68.0262 32.4282L76.6918 29.9976ZM97.8797 17.564L106.283 14.3426C106.274 14.3167 106.264 14.291 106.253 14.2653L97.8797 17.564ZM89.3158 20.7993L97.8393 17.9099C97.8332 17.8917 97.8269 17.8735 97.8206 17.8553L89.3158 20.7993ZM91.6629 29.617L82.8249 31.3166C82.8328 31.3579 82.841 31.3992 82.8496 31.4404L91.6629 29.617ZM108.283 23.7808L99.488 21.8724C99.4855 21.884 99.483 21.8956 99.4806 21.9072L108.283 23.7808ZM85.5095 48.3943L82.8111 39.8084C82.8049 39.8103 82.7987 39.8123 82.7925 39.8142L85.5095 48.3943ZM110.631 41.3528L118.049 46.4486C118.056 46.4381 118.063 46.4276 118.071 46.417L110.631 41.3528ZM98.2603 13.1868L91.8964 19.5508L95.4489 23.1033L101.813 16.7393L108.177 10.3753L104.624 6.82287L98.2603 13.1868ZM101.813 16.7393L95.4489 23.1033C94.9259 22.5803 94.9168 22.2885 95.2506 23.0641C95.587 23.846 96.0502 25.1739 96.7202 27.4886L105.365 24.9861L114.01 22.4836C113.285 19.9771 112.574 17.7843 111.785 15.9494C110.993 14.1082 109.905 12.1036 108.177 10.3753L101.813 16.7393ZM105.365 24.9861L114.126 27.0475C114.268 26.4423 114.624 24.8334 114.942 23.4118C115.108 22.6693 115.27 21.9473 115.405 21.3574C115.473 21.062 115.531 20.8124 115.577 20.6167C115.629 20.3984 115.65 20.3188 115.647 20.327L106.951 18.008L98.2551 15.6891C97.9691 16.7616 96.7437 22.3331 96.6045 22.9247L105.365 24.9861ZM106.951 18.008L115.628 20.3974C115.661 20.2774 115.628 20.4629 115.39 20.7801C115.147 21.1041 114.817 21.3965 114.447 21.6143C113.786 22.0038 113.293 21.9965 113.231 21.9965V12.9965V3.99652C111.393 3.99652 108.363 4.30639 105.307 6.10741C101.989 8.06312 99.4635 11.2994 98.2742 15.6187L106.951 18.008ZM113.231 12.9965V21.9965C113.337 21.9965 113.43 22.0013 113.51 22.0105C113.55 22.015 113.58 22.0199 113.603 22.0243C113.626 22.0287 113.637 22.0319 113.637 22.0319C113.637 22.0318 113.623 22.0277 113.597 22.0172C113.57 22.0065 113.531 21.9888 113.483 21.9618C113.379 21.9044 113.259 21.8189 113.148 21.7076L119.512 15.3437L125.876 8.97974C121.209 4.31348 115.436 3.99652 113.231 3.99652V12.9965ZM119.512 15.3437L113.148 21.7077L116.7 25.2601L123.064 18.8962L129.428 12.5322L125.876 8.97973L119.512 15.3437ZM123.064 18.8962L116.7 25.2601C116.134 24.694 115.93 24.2207 115.865 24.0498C115.791 23.857 115.714 23.5773 115.714 23.1464H124.714H133.714C133.714 19.5984 132.37 15.4745 129.428 12.5322L123.064 18.8962ZM124.714 23.1464H115.714C115.714 23.0767 115.405 25.6486 114.05 29.8737C112.792 33.7958 110.975 38.04 108.712 41.3594L116.15 46.4278L123.587 51.4961C127.161 46.2516 129.625 40.2507 131.19 35.3709C132.658 30.7941 133.714 26.0073 133.714 23.1464H124.714ZM116.15 46.4278L108.713 41.3588C105.017 46.7814 100.117 50.1619 95.7396 52.2041C91.0776 54.3793 87.8133 54.6826 88.1739 54.6826V63.6826V72.6826C91.1988 72.6826 97.1011 71.4317 103.35 68.516C109.884 65.4675 117.64 60.2205 123.586 51.4968L116.15 46.4278ZM88.1739 63.6826V54.6826C88.4931 54.6826 88.7217 54.7112 88.9527 54.7801C89.2145 54.8581 89.6679 55.0496 90.0973 55.479L83.7333 61.8429L77.3693 68.2069C81.5968 72.4344 86.7178 72.6826 88.1739 72.6826V63.6826ZM83.7333 61.8429L90.0397 55.4219L86.4872 51.9329L80.1808 58.3539L73.8745 64.7749L77.4269 68.264L83.7333 61.8429ZM80.1808 58.3539L86.408 51.856C86.5555 51.9973 86.6394 52.1116 86.6806 52.1743C86.7223 52.2376 86.7384 52.2754 86.7428 52.2863C86.7473 52.2975 86.7513 52.309 86.7555 52.3299C86.7595 52.3498 86.7702 52.4103 86.7702 52.5177H77.7702H68.7702C68.7702 56.8321 70.4989 61.5409 73.9537 64.8518L80.1808 58.3539ZM77.7702 52.5177H86.7702C86.7702 52.3967 86.7901 52.9728 86.3816 53.8108C85.9402 54.7162 85.3286 55.2578 85.0146 55.478C84.8195 55.6147 84.8887 55.5212 85.649 55.2297C86.4085 54.9385 87.3379 54.638 88.8033 54.1609L86.017 45.6031L83.2308 37.0452C81.1349 37.7276 77.4406 38.8048 74.6809 40.7397C72.9872 41.9273 71.3368 43.5949 70.2016 45.9236C69.0993 48.185 68.7702 50.4818 68.7702 52.5177H77.7702ZM86.017 45.6031L88.7272 54.1853C95.9787 51.8954 99.9905 49.2112 103.263 46.211L97.1819 39.5766L91.1004 32.9422C90.3156 33.6616 89.5618 34.2585 88.5188 34.8579C87.4345 35.481 85.8318 36.2235 83.3068 37.0208L86.017 45.6031ZM97.1819 39.5766L99.55 30.8937C99.3118 30.8287 99.6446 30.9042 100.065 31.1144C100.535 31.3496 100.878 31.6227 101.072 31.817L94.7079 38.181L88.3439 44.5449C90.8846 47.0856 93.4365 47.8838 94.8139 48.2595L97.1819 39.5766ZM94.7079 38.181L101.072 31.817L99.1687 29.9139L92.8048 36.2779L86.4408 42.6418L88.3439 44.5449L94.7079 38.181ZM92.8048 36.2779L83.8305 35.598C83.8637 35.159 84.0204 34.6555 84.3048 34.2056C84.569 33.7878 84.8428 33.5719 84.9618 33.4918C85.0731 33.4168 85.0918 33.429 84.9938 33.4569C84.8972 33.4845 84.7998 33.4947 84.7483 33.4947V42.4947V51.4947C88.0746 51.4947 91.8131 50.5794 95.0177 48.4209C98.4074 46.1377 101.377 42.2708 101.779 36.9577L92.8048 36.2779ZM84.7483 42.4947V33.4947C85.1706 33.4947 86.0272 33.6465 86.7985 34.4179L80.4346 40.7819L74.0706 47.1458C77.2526 50.3278 81.281 51.4947 84.7483 51.4947V42.4947ZM80.4346 40.7819L86.7985 34.4179L83.2461 30.8655L76.8821 37.2294L70.5182 43.5934L74.0706 47.1458L80.4346 40.7819ZM76.8821 37.2294L83.2461 30.8655C83.0458 30.6652 83.2759 30.8732 83.5447 31.256C83.8515 31.6926 83.9952 32.0395 84.0117 32.0812C84.0122 32.0822 83.9858 32.0153 83.9294 31.8424C83.8734 31.6705 83.8003 31.4332 83.7034 31.1003C83.5046 30.4176 83.2573 29.5135 82.9031 28.2096L74.2178 30.5685L65.5324 32.9275C66.1586 35.2328 66.6942 37.2404 67.2785 38.7142C68.2095 41.0629 69.3675 42.4427 70.5182 43.5934L76.8821 37.2294ZM74.2178 30.5685L82.9214 28.2781C82.4737 26.5768 80.7164 21.9044 80.2828 20.6903L71.8072 23.7174L63.3315 26.7444C63.6337 27.5905 64.2459 29.2488 64.666 30.4126C64.9014 31.0648 65.1131 31.6609 65.2797 32.1486C65.471 32.7087 65.5257 32.9031 65.5141 32.859L74.2178 30.5685ZM71.8072 23.7174L80.1149 20.2558C80.0962 20.211 80.1184 20.2574 80.1406 20.3535C80.164 20.455 80.1728 20.5476 80.1728 20.609H71.1728H62.1728C62.1728 23.4627 62.8738 25.6773 63.4995 27.1789L71.8072 23.7174ZM71.1728 20.609H80.1728C80.1728 21.0443 80.06 21.5686 79.798 22.0679C79.5486 22.5429 79.2503 22.8345 79.0549 22.9848C78.7309 23.234 78.6711 23.1384 78.9121 23.1384V14.1384V5.13839C75.22 5.13839 71.2905 6.24804 68.0801 8.71757C64.7028 11.3155 62.1728 15.4487 62.1728 20.609H71.1728ZM78.9121 14.1384V23.1384C78.1723 23.1384 77.4335 22.7868 76.8618 22.2151L83.2258 15.8512L89.5898 9.48723C87.3688 7.26621 83.7119 5.13839 78.9121 5.13839V14.1384ZM83.2258 15.8512L76.8618 22.2151L79.7799 25.1332L86.1439 18.7693L92.5079 12.4053L89.5898 9.48722L83.2258 15.8512ZM86.1439 18.7693L95.0803 17.7008C95.0939 17.8148 95.1099 18.3996 94.7472 19.1357C94.4131 19.8137 93.9761 20.1772 93.7831 20.3103C93.6174 20.4245 93.5693 20.4184 93.665 20.391C93.7999 20.3523 93.702 20.4106 93.2488 20.4106V11.4106V2.4106C90.7032 2.4106 86.9015 3.19064 83.5639 5.49245C79.6055 8.22236 76.4073 13.1449 77.2076 19.8378L86.1439 18.7693ZM93.2488 11.4106V20.4106C93.3593 20.4106 93.3386 20.416 93.2736 20.4009C93.2262 20.39 93.0689 20.3504 92.8401 20.2379C92.602 20.121 92.2543 19.9087 91.8964 19.5508L98.2603 13.1868L104.624 6.82287C99.9512 2.1498 93.6421 2.4106 93.2488 2.4106V11.4106ZM81.3861 36.4047V45.4047C83.4895 45.4047 86.3767 44.8765 89.0393 43.3869C91.9589 41.7536 95.7148 38.1812 95.7148 32.2813H86.7148H77.7148C77.7148 31.1783 78.0778 30.0349 78.7386 29.0934C79.3298 28.251 79.966 27.8376 80.2511 27.6781C80.5418 27.5154 80.7255 27.47 80.7726 27.4586C80.8008 27.4518 80.9826 27.4047 81.3861 27.4047V36.4047ZM86.7148 32.2813H95.7148C95.7148 30.5982 95.2993 28.8407 95.0733 27.9228C94.7736 26.7052 94.3799 25.3541 93.9623 24.0361C93.1406 21.4424 92.0752 18.5029 91.1329 16.3828L82.9086 20.038L74.6843 23.6933C75.2645 24.9988 76.1023 27.2611 76.803 29.4727C77.1466 30.5573 77.419 31.5098 77.5951 32.2251C77.6835 32.5844 77.7295 32.8108 77.7486 32.9201C77.7827 33.1143 77.7148 32.8262 77.7148 32.2813H86.7148ZM82.9086 20.038L91.1429 16.4053C90.5726 15.1127 89.472 12.7742 87.3434 10.8585C84.8021 8.57133 81.7511 7.67587 78.7852 7.67587V16.6759V25.6759C78.525 25.6759 77.9607 25.6398 77.2412 25.3863C76.4864 25.1203 75.8238 24.7074 75.302 24.2378C74.8204 23.8043 74.5795 23.4316 74.5227 23.34C74.4741 23.2614 74.5212 23.3235 74.6744 23.6708L82.9086 20.038ZM78.7852 16.6759V7.67587C76.1056 7.67587 73.0734 8.40896 70.4505 10.1159C67.6873 11.9142 64.6468 15.3989 64.6468 20.5455H73.6468H82.6468C82.6468 21.6864 82.3028 22.7792 81.7447 23.6657C81.225 24.491 80.6349 24.9641 80.2687 25.2024C79.6442 25.6089 79.1812 25.6759 78.7852 25.6759V16.6759ZM73.6468 20.5455H64.6468C64.6468 23.463 65.7434 25.9237 65.7596 25.9684L74.2178 22.8927L82.6759 19.817C82.6258 19.6791 82.5774 19.5504 82.5454 19.4652C82.5084 19.3669 82.4892 19.3156 82.4714 19.2671C82.438 19.1759 82.4516 19.2068 82.4771 19.2943C82.5056 19.3916 82.5504 19.5637 82.5868 19.7904C82.6238 20.021 82.6468 20.2762 82.6468 20.5455H73.6468ZM74.2178 22.8927L65.8215 26.1334C67.1703 29.6282 67.6912 31.2317 68.0251 32.4243L76.6918 29.9976L85.3585 27.5709C84.8043 25.5917 84.0564 23.389 82.6141 19.652L74.2178 22.8927ZM76.6918 29.9976L68.0262 32.4282C68.3669 33.6427 68.7259 34.936 69.0893 36.0303C69.4349 37.0707 69.9974 38.6164 70.9746 40.1007C72.1142 41.8317 73.7899 43.4459 76.1438 44.4339C78.2161 45.3036 80.1711 45.4047 81.3861 45.4047V36.4047V27.4047C81.1422 27.4047 81.9632 27.3552 83.1097 27.8364C83.7356 28.0991 84.3502 28.4727 84.9025 28.9522C85.439 29.4178 85.7941 29.8765 86.0091 30.203C86.3598 30.7358 86.3871 31.0048 86.1716 30.3562C85.9741 29.7615 85.7463 28.9535 85.3574 27.567L76.6918 29.9976ZM95.7229 33.8038V42.8038C97.2288 42.8038 100.05 42.5141 102.852 41.0944C106.082 39.4576 109.988 35.7809 109.988 29.617H100.988H91.9881C91.9881 28.6859 92.2935 27.5505 93.0207 26.5399C93.672 25.6349 94.3894 25.2035 94.7154 25.0383C95.039 24.8744 95.236 24.8382 95.253 24.8347C95.2595 24.8334 95.3822 24.8038 95.7229 24.8038V33.8038ZM100.988 29.617H109.988C109.988 28.2453 109.696 26.7172 109.538 25.9145C109.322 24.8195 109.033 23.5555 108.707 22.2671C108.072 19.7506 107.194 16.7178 106.283 14.3426L97.8797 17.564L89.476 20.7854C90.0245 22.2164 90.701 24.4806 91.255 26.6742C91.5244 27.7409 91.738 28.6853 91.8772 29.3923C91.9474 29.7486 91.9874 29.988 92.0065 30.1202C92.0394 30.349 91.9881 30.0984 91.9881 29.617H100.988ZM97.8797 17.564L106.253 14.2653C105.906 13.3833 104.953 10.8053 102.887 8.68708C100.272 6.00562 96.9298 4.94808 93.6295 4.94808V13.9481V22.9481C93.444 22.9481 92.8628 22.9216 92.0878 22.6253C91.2611 22.3093 90.5458 21.8131 90.0015 21.2549C89.5114 20.7524 89.2928 20.3356 89.2699 20.2919C89.2599 20.2729 89.3152 20.3783 89.5061 20.8627L97.8797 17.564ZM93.6295 13.9481V4.94808C91.285 4.94808 88.3133 5.50535 85.6184 7.16544C82.6321 9.00497 79.6179 12.558 79.6179 17.7543H88.6179H97.6179C97.6179 18.7653 97.3225 19.8549 96.7149 20.8165C96.1479 21.7137 95.4839 22.2293 95.059 22.4911C94.3464 22.93 93.8805 22.9481 93.6295 22.9481V13.9481ZM88.6179 17.7543H79.6179C79.6179 20.1617 80.1806 21.9225 80.8109 23.7433L89.3158 20.7993L97.8206 17.8553C97.7582 17.6751 97.7067 17.5233 97.6636 17.3935C97.6205 17.2636 97.5885 17.1637 97.5648 17.0868C97.5154 16.9269 97.5133 16.9044 97.5274 16.9663C97.5354 17.0013 97.5477 17.0593 97.5608 17.1362C97.574 17.2142 97.5862 17.3005 97.596 17.3921C97.6057 17.4835 97.6115 17.5651 97.6146 17.6327C97.6177 17.6984 97.6179 17.742 97.6179 17.7543H88.6179ZM89.3158 20.7993L80.7922 23.6886C81.926 27.0335 82.2662 28.4118 82.8249 31.3166L91.6629 29.617L100.501 27.9174C99.7908 24.2247 99.243 22.0506 97.8393 17.9099L89.3158 20.7993ZM91.6629 29.617L82.8496 31.4404C82.9435 31.8944 83.4168 34.9034 85.2123 37.5082C87.6351 41.0229 91.4774 42.8038 95.7229 42.8038V33.8038V24.8038C96.0057 24.8038 96.7926 24.8587 97.7702 25.3426C98.7936 25.8493 99.5481 26.5896 100.032 27.2924C100.462 27.9149 100.604 28.3975 100.613 28.4268C100.622 28.457 100.614 28.4344 100.588 28.3205C100.559 28.192 100.532 28.0609 100.476 27.7935L91.6629 29.617ZM118.624 19.8477H127.624C127.624 17.0987 126.848 14.4413 125.227 12.1847C123.672 10.0183 121.708 8.73217 120.089 7.98077C117.08 6.58449 114.181 6.534 113.358 6.534V15.534V24.534C113.241 24.534 113.194 24.5287 113.154 24.5225C113.142 24.5206 112.899 24.4879 112.512 24.3084C112.106 24.12 111.304 23.6545 110.606 22.6836C109.844 21.6224 109.624 20.5351 109.624 19.8477H118.624ZM113.358 15.534V6.534C111.995 6.534 109.775 6.65761 107.477 7.75408C104.884 8.99112 103.232 10.9451 102.206 12.8261C101.319 14.4528 100.826 16.1649 100.506 17.4017C100.168 18.7077 99.8318 20.2881 99.488 21.8724L108.283 23.7808L117.079 25.6892C117.464 23.9114 117.707 22.7798 117.932 21.9091C118.038 21.5013 118.108 21.2782 118.144 21.1727C118.183 21.0628 118.147 21.1904 118.008 21.4455C117.861 21.7154 117.568 22.1834 117.066 22.6921C116.54 23.2249 115.912 23.6732 115.228 23.9998C113.968 24.6007 113.041 24.534 113.358 24.534V15.534ZM108.283 23.7808L99.4806 21.9072C97.8789 29.4326 94.8722 33.2037 92.2193 35.3598C89.3356 37.7034 86.171 38.7524 82.8111 39.8084L85.5095 48.3943L88.208 56.9803C91.509 55.9428 97.733 54.0737 103.572 49.3283C109.642 44.3953 114.691 36.9063 117.086 25.6544L108.283 23.7808ZM85.5095 48.3943L82.7925 39.8142C81.5101 40.2203 78.6019 41.0407 76.4068 42.5393C74.9547 43.5306 73.4646 44.9935 72.4602 47.1015C71.5077 49.1007 71.3077 51.0255 71.3077 52.4543H80.3077H89.3077C89.3077 52.6778 89.2821 53.6431 88.7102 54.8434C88.0866 56.1525 87.1832 56.977 86.5558 57.4053C86.0741 57.7342 85.8088 57.7904 86.2401 57.6293C86.6461 57.4776 87.204 57.2982 88.2266 56.9744L85.5095 48.3943ZM80.3077 52.4543H71.3077C71.3077 55.0525 72.081 58.0996 73.8342 60.7294C75.7616 63.6205 79.3752 66.5927 84.6214 66.5927V57.5927V48.5927C85.5368 48.5927 86.5018 48.858 87.3423 49.3696C88.1232 49.8449 88.5786 50.396 88.8111 50.7448C89.04 51.0881 89.1422 51.3642 89.1935 51.54C89.2408 51.7022 89.3077 51.9925 89.3077 52.4543H80.3077ZM84.6214 57.5927V66.5927C86.2298 66.5927 88.3785 66.1983 90.3917 65.6806C92.6599 65.0973 95.5003 64.1651 98.5985 62.7315C104.785 59.8688 112.257 54.8809 118.049 46.4486L110.631 41.3528L103.212 36.257C99.6792 41.4002 95.0662 44.5323 91.0393 46.3956C89.0309 47.325 87.2324 47.9074 85.9085 48.2479C84.3295 48.6539 83.9328 48.5927 84.6214 48.5927V57.5927ZM110.631 41.3528L118.071 46.417C121.316 41.6493 123.629 35.9309 125.11 31.3941C125.869 29.0667 126.462 26.8897 126.873 25.0781C127.216 23.5719 127.624 21.5267 127.624 19.8477H118.624H109.624C109.624 19.2789 109.675 19.5332 109.321 21.0879C109.037 22.3371 108.594 23.9822 107.998 25.8099C106.767 29.5833 105.084 33.5074 103.191 36.2886L110.631 41.3528Z" fill="white" mask="url(#path-1-outside-1_2024_17)"/>
</g>
<defs>
<filter id="filter0_d_2024_17" x="-5.43594e-05" y="0" width="138.413" height="82.9053" filterUnits="userSpaceOnUse" color-interpolation-filters="sRGB">
<feFlood flood-opacity="0" result="BackgroundImageFix"/>
<feColorMatrix in="SourceAlpha" type="matrix" values="0 0 0 0 0 0 0 0 0 0 0 0 0 0 0 0 0 0 127 0" result="hardAlpha"/>
<feOffset dy="4.69903"/>
<feGaussianBlur stdDeviation="2.34951"/>
<feComposite in2="hardAlpha" operator="out"/>
<feColorMatrix type="matrix" values="0 0 0 0 0 0 0 0 0 0 0 0 0 0 0 0 0 0 0.25 0"/>
<feBlend mode="normal" in2="BackgroundImageFix" result="effect1_dropShadow_2024_17"/>
<feBlend mode="normal" in="SourceGraphic" in2="effect1_dropShadow_2024_17" result="shape"/>
</filter>
</defs>
</svg>
